<svg width="27" height="28" viewBox="0 0 27 28" fill="none" xmlns="http://www.w3.org/2000/svg">
<path d="M13.5 0.875C6.25195 0.875 0.375 6.75195 0.375 14C0.375 21.248 6.25195 27.125 13.5 27.125C20.748 27.125 26.625 21.248 26.625 14C26.625 6.75195 20.748 0.875 13.5 0.875ZM13.5 24.8984C7.48242 24.8984 2.60156 20.0176 2.60156 14C2.60156 7.98242 7.48242 3.10156 13.5 3.10156C19.5176 3.10156 24.3984 7.98242 24.3984 14C24.3984 20.0176 19.5176 24.8984 13.5 24.8984ZM13.6641 9.29199C15.2168 9.29199 16.2715 10.2822 16.3887 11.7354C16.3975 11.8584 16.5 11.9521 16.623 11.9521H18.2842C18.3604 11.9521 18.4219 11.8906 18.4219 11.8145C18.4219 9.27441 16.418 7.49609 13.6553 7.49609C10.4355 7.49609 8.57812 9.66992 8.57812 13.2617V14.7939C8.57812 18.3594 10.4355 20.5039 13.6553 20.5039C16.4092 20.5039 18.4219 18.7812 18.4219 16.3613C18.4219 16.2852 18.3604 16.2236 18.2842 16.2236H16.6201C16.4971 16.2236 16.3975 16.3174 16.3857 16.4375C16.2627 17.7881 15.2109 18.7168 13.6611 18.7168C11.748 18.7168 10.6699 17.3135 10.6699 14.8027V13.2617C10.6729 10.7129 11.7539 9.29199 13.6641 9.29199Z" fill="white"/>
</svg>
