<svg width="94" height="93" viewBox="0 0 94 93" fill="none" xmlns="http://www.w3.org/2000/svg">
<g clip-path="url(#clip0_29_332)">
<path d="M71.6431 0H22.2368C10.1987 0 0.439941 9.75879 0.439941 21.7969V71.2031C0.439941 83.2412 10.1987 93 22.2368 93H71.6431C83.6811 93 93.4399 83.2412 93.4399 71.2031V21.7969C93.4399 9.75879 83.6811 0 71.6431 0Z" fill="#5865F2"/>
<mask id="mask0_29_332" style="mask-type:luminance" maskUnits="userSpaceOnUse" x="10" y="18" width="74" height="57">
<path d="M10.6118 18.5273H83.2681V74.8105H10.6118V18.5273Z" fill="white"/>
</mask>
<g mask="url(#mask0_29_332)">
<path d="M72.118 23.5396C67.4076 21.3773 62.4365 19.8354 57.3292 18.9525C57.2828 18.9439 57.2349 18.9502 57.1922 18.9704C57.1495 18.9906 57.1144 19.0237 57.0916 19.0651C56.453 20.2007 55.7453 21.6829 55.2501 22.8476C49.6654 22.0113 44.1098 22.0113 38.6398 22.8476C38.1443 21.6567 37.4112 20.2007 36.7697 19.0651C36.7459 19.0246 36.7105 18.9922 36.6681 18.9721C36.6256 18.952 36.5781 18.9452 36.5317 18.9525C31.424 19.8336 26.4527 21.3756 21.7429 23.5396C21.7026 23.5567 21.6686 23.5859 21.6455 23.6232C12.2264 37.6952 9.64636 51.4215 10.912 64.9777C10.9156 65.0109 10.9257 65.0431 10.942 65.0723C10.9582 65.1015 10.9801 65.1271 11.0065 65.1477C17.2208 69.7116 23.2407 72.4823 29.1487 74.3187C29.1947 74.3324 29.2438 74.3318 29.2893 74.3168C29.3349 74.3019 29.3748 74.2734 29.4038 74.2352C30.8013 72.3265 32.047 70.3143 33.1154 68.1982C33.1301 68.1692 33.1385 68.1374 33.1401 68.1049C33.1416 68.0725 33.1362 68.04 33.1243 68.0098C33.1124 67.9795 33.0942 67.9522 33.071 67.9295C33.0477 67.9068 33.0199 67.8893 32.9894 67.8781C31.0131 67.1283 29.1317 66.2146 27.3218 65.1767C27.2888 65.1573 27.2612 65.1301 27.2412 65.0975C27.2212 65.0648 27.2096 65.0278 27.2074 64.9896C27.2051 64.9514 27.2123 64.9132 27.2282 64.8785C27.2442 64.8437 27.2685 64.8134 27.2989 64.7902C27.6807 64.5048 28.056 64.2107 28.4244 63.9082C28.4566 63.8815 28.4957 63.8644 28.5371 63.8587C28.5786 63.8531 28.6208 63.8591 28.659 63.8762C40.55 69.3051 53.4228 69.3051 65.1732 63.8762C65.2115 63.858 65.2542 63.8511 65.2964 63.8562C65.3385 63.8614 65.3783 63.8784 65.4111 63.9053C65.7799 64.2095 66.1561 64.5046 66.5395 64.7902C66.57 64.8132 66.5945 64.8433 66.6107 64.8779C66.6269 64.9125 66.6344 64.9506 66.6324 64.9888C66.6304 65.027 66.6191 65.0641 66.5994 65.0969C66.5797 65.1296 66.5523 65.1571 66.5195 65.1767C64.7086 66.2341 62.8117 67.1368 60.849 67.8752C60.8186 67.8868 60.7909 67.9048 60.7678 67.9279C60.7448 67.951 60.7268 67.9786 60.7152 68.0091C60.7036 68.0396 60.6985 68.0722 60.7004 68.1048C60.7022 68.1374 60.7109 68.1692 60.7259 68.1982C61.8128 70.2975 63.0523 72.3143 64.4343 74.2323C64.4624 74.2715 64.5021 74.301 64.5479 74.3165C64.5936 74.332 64.6431 74.3328 64.6893 74.3187C70.626 72.4823 76.646 69.7116 82.8606 65.1477C82.8872 65.1281 82.9094 65.103 82.9257 65.0742C82.942 65.0454 82.952 65.0135 82.9551 64.9806C84.4699 49.3083 80.4175 35.6943 72.2125 23.6261C72.1924 23.5869 72.1588 23.5562 72.118 23.5396ZM34.8911 56.7236C31.311 56.7236 28.3612 53.4369 28.3612 49.4005C28.3612 45.3641 31.254 42.0775 34.8911 42.0775C38.5566 42.0775 41.4778 45.3932 41.4204 49.4005C41.4204 53.4369 38.5283 56.7236 34.8911 56.7236ZM59.0334 56.7236C55.4532 56.7236 52.5037 53.4369 52.5037 49.4005C52.5037 45.3641 55.3962 42.0775 59.0334 42.0775C62.6989 42.0775 65.62 45.3932 65.563 49.4005C65.563 53.4369 62.6989 56.7236 59.0334 56.7236Z" fill="white"/>
</g>
</g>
<defs>
<clipPath id="clip0_29_332">
<rect width="93" height="93" fill="white" transform="translate(0.439941)"/>
</clipPath>
</defs>
</svg>
