<svg width="94" height="93" viewBox="0 0 94 93" fill="none" xmlns="http://www.w3.org/2000/svg">
<g clip-path="url(#clip0_29_325)">
<path d="M71.2432 0H21.8369C9.79883 0 0.0400391 9.75879 0.0400391 21.7969V71.2031C0.0400391 83.2412 9.79883 93 21.8369 93H71.2432C83.2812 93 93.04 83.2412 93.04 71.2031V21.7969C93.04 9.75879 83.2812 0 71.2432 0Z" fill="url(#paint0_radial_29_325)"/>
<path d="M71.2432 0H21.8369C9.79883 0 0.0400391 9.75879 0.0400391 21.7969V71.2031C0.0400391 83.2412 9.79883 93 21.8369 93H71.2432C83.2812 93 93.04 83.2412 93.04 71.2031V21.7969C93.04 9.75879 83.2812 0 71.2432 0Z" fill="url(#paint1_radial_29_325)"/>
<path d="M46.5433 10.1719C36.6773 10.1719 35.4389 10.2151 31.5641 10.3913C27.6966 10.5686 25.0567 11.1807 22.7469 12.0791C20.3573 13.0069 18.3305 14.2483 16.3114 16.2681C14.2905 18.2876 13.0491 20.3143 12.1184 22.7029C11.2175 25.0134 10.6046 27.6544 10.4306 31.5201C10.2573 35.3952 10.2119 36.634 10.2119 46.5004C10.2119 56.3667 10.2555 57.6011 10.4313 61.4759C10.6093 65.3434 11.2215 67.9834 12.1191 70.2931C13.0477 72.6828 14.289 74.7095 16.3089 76.7286C18.3276 78.7496 20.3544 79.9938 22.7422 80.9216C25.0538 81.82 27.6941 82.4321 31.5609 82.6094C35.436 82.7856 36.6733 82.8288 46.5389 82.8288C56.406 82.8288 57.6405 82.7856 61.5152 82.6094C65.3827 82.4321 68.0256 81.82 70.3371 80.9216C72.7257 79.9938 74.7495 78.7496 76.7679 76.7286C78.7889 74.7095 80.0298 72.6828 80.9609 70.2942C81.8539 67.9834 82.4671 65.3427 82.6487 61.4766C82.8228 57.6019 82.8682 56.3667 82.8682 46.5004C82.8682 36.634 82.8228 35.3959 82.6487 31.5208C82.4671 27.6533 81.8539 25.0137 80.9609 22.704C80.0298 20.3143 78.7889 18.2876 76.7679 16.2681C74.7474 14.2475 72.7264 13.0062 70.335 12.0795C68.019 11.1807 65.3776 10.5682 61.5101 10.3913C57.635 10.2151 56.4013 10.1719 46.532 10.1719H46.5433ZM43.2843 16.7186C44.2517 16.7171 45.331 16.7186 46.5433 16.7186C56.2433 16.7186 57.3927 16.7534 61.2231 16.9275C64.7651 17.0895 66.6876 17.6813 67.9682 18.1786C69.6636 18.8369 70.8723 19.6241 72.143 20.8959C73.4145 22.1674 74.2014 23.3782 74.8615 25.0737C75.3588 26.3524 75.9513 28.2749 76.1126 31.8169C76.2866 35.6466 76.3244 36.7968 76.3244 46.492C76.3244 56.1873 76.2866 57.3378 76.1126 61.1671C75.9506 64.7091 75.3588 66.6316 74.8615 67.9107C74.2032 69.6061 73.4145 70.8133 72.143 72.0841C70.8715 73.3556 69.6643 74.1424 67.9682 74.8011C66.6891 75.3006 64.7651 75.8909 61.2231 76.0529C57.3934 76.2269 56.2433 76.2647 46.5433 76.2647C36.843 76.2647 35.6932 76.2269 31.8638 76.0529C28.3218 75.8895 26.3994 75.2977 25.1177 74.8003C23.4226 74.1417 22.2115 73.3548 20.94 72.0834C19.6685 70.8119 18.8816 69.604 18.2215 67.9078C17.7242 66.6287 17.1317 64.7062 16.9704 61.1642C16.7964 57.3345 16.7615 56.1844 16.7615 46.4829C16.7615 36.7819 16.7964 35.6375 16.9704 31.8078C17.1324 28.2658 17.7242 26.3433 18.2215 25.0628C18.8802 23.3673 19.6685 22.1565 20.9403 20.885C22.2118 19.6136 23.4226 18.8263 25.1181 18.1666C26.3986 17.6671 28.3218 17.0768 31.8638 16.914C35.2151 16.7625 36.5138 16.7171 43.2843 16.7095V16.7186ZM65.9353 22.7505C63.5285 22.7505 61.5759 24.7013 61.5759 27.1084C61.5759 29.5152 63.5285 31.4678 65.9353 31.4678C68.342 31.4678 70.2946 29.5152 70.2946 27.1084C70.2946 24.7017 68.342 22.749 65.9353 22.749V22.7505ZM46.5433 27.8441C36.2407 27.8441 27.8874 36.1973 27.8874 46.5004C27.8874 56.8034 36.2407 65.1527 46.5433 65.1527C56.8463 65.1527 65.1967 56.8034 65.1967 46.5004C65.1967 36.1977 56.8456 27.8441 46.5426 27.8441H46.5433ZM46.5433 34.3907C53.231 34.3907 58.6529 39.812 58.6529 46.5004C58.6529 53.188 53.231 58.61 46.5433 58.61C39.8553 58.61 34.4341 53.188 34.4341 46.5004C34.4341 39.812 39.8553 34.3907 46.5433 34.3907Z" fill="white"/>
</g>
<defs>
<radialGradient id="paint0_radial_29_325" cx="0" cy="0" r="1" gradientUnits="userSpaceOnUse" gradientTransform="translate(24.7432 100.163) rotate(-90) scale(92.1699 85.7253)">
<stop stop-color="#FFDD55"/>
<stop offset="0.1" stop-color="#FFDD55"/>
<stop offset="0.5" stop-color="#FF543E"/>
<stop offset="1" stop-color="#C837AB"/>
</radialGradient>
<radialGradient id="paint1_radial_29_325" cx="0" cy="0" r="1" gradientUnits="userSpaceOnUse" gradientTransform="translate(-15.5378 6.69927) rotate(78.681) scale(41.2005 169.83)">
<stop stop-color="#3771C8"/>
<stop offset="0.128" stop-color="#3771C8"/>
<stop offset="1" stop-color="#6600FF" stop-opacity="0"/>
</radialGradient>
<clipPath id="clip0_29_325">
<rect width="93" height="93" fill="white" transform="translate(0.0400391)"/>
</clipPath>
</defs>
</svg>
