<svg width="93" height="93" viewBox="0 0 93 93" fill="none" xmlns="http://www.w3.org/2000/svg">
<g clip-path="url(#clip0_29_322)">
<path d="M46.5 0C34.1702 0 22.3345 4.90212 13.623 13.6194C4.90257 22.3402 0.0024156 34.1672 0 46.5C0 58.8276 4.9043 70.6633 13.623 79.3806C22.3345 88.0979 34.1702 93 46.5 93C58.8298 93 70.6655 88.0979 79.377 79.3806C88.0957 70.6633 93 58.8276 93 46.5C93 34.1724 88.0957 22.3367 79.377 13.6194C70.6655 4.90212 58.8298 0 46.5 0Z" fill="url(#paint0_linear_29_322)"/>
<path d="M21.0485 46.0087C34.6062 40.1032 43.6446 36.2095 48.1638 34.3285C61.0821 28.957 63.7631 28.0241 65.5141 27.9925C65.8992 27.9863 66.7566 28.0815 67.316 28.5338C67.781 28.9152 67.9118 29.4311 67.9772 29.7932C68.0353 30.1551 68.1152 30.9797 68.0498 31.6235C67.3523 38.9763 64.3226 56.8192 62.7823 65.0548C62.1356 68.5394 60.8496 69.7077 59.6072 69.8218C56.9044 70.0702 54.8555 68.0373 52.2398 66.3233C48.1493 63.6402 45.8388 61.9705 41.8645 59.3527C37.2727 56.3273 40.2516 54.6642 42.8672 51.9469C43.5502 51.2356 55.4512 40.4134 55.6765 39.4318C55.7055 39.309 55.7346 38.8513 55.4585 38.6101C55.1897 38.3681 54.7901 38.451 54.4995 38.5164C54.0853 38.6094 47.5535 42.931 34.8823 51.4804C33.0295 52.7548 31.3512 53.376 29.8399 53.3433C28.1834 53.3077 24.9865 52.4046 22.6106 51.633C19.7044 50.6863 17.3866 50.1857 17.5901 48.5778C17.6918 47.7408 18.847 46.8842 21.0485 46.0087Z" fill="white"/>
</g>
<defs>
<linearGradient id="paint0_linear_29_322" x1="4650" y1="0" x2="4650" y2="9300" gradientUnits="userSpaceOnUse">
<stop stop-color="#2AABEE"/>
<stop offset="1" stop-color="#229ED9"/>
</linearGradient>
<clipPath id="clip0_29_322">
<rect width="93" height="93" fill="white"/>
</clipPath>
</defs>
</svg>
